<!-- Generated by scripts/render-banner.py from `lindisfarner sample.txt`. Do not edit by hand. -->
<svg xmlns="http://www.w3.org/2000/svg" width="631" height="572" viewBox="0 0 631 572" font-family="ui-monospace, SFMono-Regular, Menlo, Consolas, &quot;DejaVu Sans Mono&quot;, monospace" font-size="15.5">
<rect x="0.5" y="0.5" width="630" height="572" rx="11" fill="#171717" stroke="#3a3320"/>
<text xml:space="preserve" y="30.09" x="18.00 27.30 36.60 45.90 55.20 64.50 73.80 83.10 92.40 101.70 111.00 120.30 129.60 138.90 148.20 157.50 166.80 176.10 185.40 194.70 204.00 213.30 222.60 231.90 241.20 250.50 259.80 269.10 278.40 287.70 297.00 306.30 315.60 324.90 334.20 343.50 352.80 362.10 371.40 380.70 390.00 399.30 408.60 417.90 427.20 436.50 445.80 455.10 464.40 473.70 483.00 492.30 501.60 510.90 520.20 529.50 538.80 548.10 557.40 566.70 576.00 585.30 594.60 603.90" fill="#d4b24a">╭───────────────────────────────❦──────────────────────────────╮</text>
<text xml:space="preserve" y="48.59" x="18.00" fill="#d4b24a">│</text>
<text xml:space="preserve" y="48.59" x="73.80 83.10 92.40" fill="#f4cb4b" font-weight="bold">...</text>
<text xml:space="preserve" y="48.59" x="148.20 157.50" fill="#f4cb4b" font-weight="bold">..</text>
<text xml:space="preserve" y="48.59" x="222.60 231.90" fill="#f4cb4b" font-weight="bold">..</text>
<text xml:space="preserve" y="48.59" x="287.70" fill="#ddd6c6">r</text>
<text xml:space="preserve" y="48.59" x="306.30 315.60 324.90 334.20 343.50 352.80 362.10" fill="#ddd6c6">Leopold</text>
<text xml:space="preserve" y="48.59" x="380.70 390.00 399.30 408.60 417.90" fill="#ddd6c6">Bloom</text>
<text xml:space="preserve" y="48.59" x="436.50 445.80 455.10" fill="#ddd6c6">ate</text>
<text xml:space="preserve" y="48.59" x="473.70 483.00 492.30 501.60" fill="#ddd6c6">with</text>
<text xml:space="preserve" y="48.59" x="520.20 529.50 538.80 548.10 557.40 566.70" fill="#ddd6c6">relish</text>
<text xml:space="preserve" y="48.59" x="603.90" fill="#d4b24a">│</text>
<text xml:space="preserve" y="67.09" x="18.00" fill="#d4b24a">│</text>
<text xml:space="preserve" y="67.09" x="55.20 64.50 73.80 83.10 92.40 101.70 111.00 120.30 129.60 138.90 148.20 157.50 166.80 176.10 185.40" fill="#f4cb4b" font-weight="bold">x*8888x.:*8888:</text>
<text xml:space="preserve" y="67.09" x="204.00 213.30 222.60 231.90 241.20 250.50" fill="#f4cb4b" font-weight="bold">-&quot;888:</text>
<text xml:space="preserve" y="67.09" x="287.70 297.00 306.30" fill="#ddd6c6">the</text>
<text xml:space="preserve" y="67.09" x="324.90 334.20 343.50 352.80 362.10" fill="#ddd6c6">inner</text>
<text xml:space="preserve" y="67.09" x="380.70 390.00 399.30 408.60 417.90 427.20" fill="#ddd6c6">organs</text>
<text xml:space="preserve" y="67.09" x="445.80 455.10" fill="#ddd6c6">of</text>
<text xml:space="preserve" y="67.09" x="473.70 483.00 492.30 501.60 510.90 520.20" fill="#ddd6c6">beasts</text>
<text xml:space="preserve" y="67.09" x="538.80 548.10 557.40" fill="#ddd6c6">and</text>
<text xml:space="preserve" y="67.09" x="603.90" fill="#d4b24a">│</text>
<text xml:space="preserve" y="85.59" x="18.00" fill="#d4b24a">│</text>
<text xml:space="preserve" y="85.59" x="45.90" fill="#f4cb4b" font-weight="bold">X</text>
<text xml:space="preserve" y="85.59" x="83.10 92.40 101.70 111.00 120.30 129.60" fill="#f4cb4b" font-weight="bold">48888X</text>
<text xml:space="preserve" y="85.59" x="148.20 157.50 166.80 176.10 185.40 194.70" fill="#f4cb4b" font-weight="bold">`8888H</text>
<text xml:space="preserve" y="85.59" x="222.60 231.90 241.20 250.50" fill="#f4cb4b" font-weight="bold">8888</text>
<text xml:space="preserve" y="85.59" x="287.70 297.00 306.30 315.60 324.90 334.20" fill="#ddd6c6">fowls.</text>
<text xml:space="preserve" y="85.59" x="352.80 362.10" fill="#ddd6c6">He</text>
<text xml:space="preserve" y="85.59" x="380.70 390.00 399.30 408.60 417.90" fill="#ddd6c6">liked</text>
<text xml:space="preserve" y="85.59" x="436.50 445.80 455.10 464.40 473.70" fill="#ddd6c6">thick</text>
<text xml:space="preserve" y="85.59" x="492.30 501.60 510.90 520.20 529.50 538.80" fill="#ddd6c6">giblet</text>
<text xml:space="preserve" y="85.59" x="603.90" fill="#d4b24a">│</text>
<text xml:space="preserve" y="104.09" x="18.00" fill="#d4b24a">│</text>
<text xml:space="preserve" y="104.09" x="36.60 45.90 55.20 64.50" fill="#f4cb4b" font-weight="bold">X8x.</text>
<text xml:space="preserve" y="104.09" x="92.40 101.70 111.00 120.30 129.60" fill="#f4cb4b" font-weight="bold">8888X</text>
<text xml:space="preserve" y="104.09" x="157.50 166.80 176.10 185.40 194.70" fill="#f4cb4b" font-weight="bold">8888X</text>
<text xml:space="preserve" y="104.09" x="222.60 231.90 241.20 250.50 259.80" fill="#f4cb4b" font-weight="bold">!888&gt;</text>
<text xml:space="preserve" y="104.09" x="287.70 297.00 306.30 315.60 324.90" fill="#ddd6c6">soup,</text>
<text xml:space="preserve" y="104.09" x="343.50 352.80 362.10 371.40 380.70" fill="#ddd6c6">nutty</text>
<text xml:space="preserve" y="104.09" x="399.30 408.60 417.90 427.20 436.50 445.80 455.10 464.40 473.70" fill="#ddd6c6">gizzards,</text>
<text xml:space="preserve" y="104.09" x="492.30" fill="#ddd6c6">a</text>
<text xml:space="preserve" y="104.09" x="510.90 520.20 529.50 538.80 548.10 557.40 566.70" fill="#ddd6c6">stuffed</text>
<text xml:space="preserve" y="104.09" x="603.90" fill="#d4b24a">│</text>
<text xml:space="preserve" y="122.59" x="18.00" fill="#d4b24a">│</text>
<text xml:space="preserve" y="122.59" x="36.60 45.90 55.20 64.50 73.80" fill="#f4cb4b" font-weight="bold">X8888</text>
<text xml:space="preserve" y="122.59" x="92.40 101.70 111.00 120.30 129.60" fill="#f4cb4b" font-weight="bold">X8888</text>
<text xml:space="preserve" y="122.59" x="157.50 166.80 176.10 185.40 194.70" fill="#f4cb4b" font-weight="bold">88888</text>
<text xml:space="preserve" y="122.59" x="231.90 241.20 250.50 259.80 269.10" fill="#f4cb4b" font-weight="bold">&quot;*8%-</text>
<text xml:space="preserve" y="122.59" x="287.70 297.00 306.30 315.60 324.90" fill="#ddd6c6">roast</text>
<text xml:space="preserve" y="122.59" x="343.50 352.80 362.10 371.40 380.70 390.00" fill="#ddd6c6">heart,</text>
<text xml:space="preserve" y="122.59" x="408.60 417.90 427.20 436.50 445.80" fill="#ddd6c6">liver</text>
<text xml:space="preserve" y="122.59" x="464.40 473.70 483.00 492.30 501.60 510.90" fill="#ddd6c6">slices</text>
<text xml:space="preserve" y="122.59" x="529.50 538.80 548.10 557.40 566.70" fill="#ddd6c6">fried</text>
<text xml:space="preserve" y="122.59" x="603.90" fill="#d4b24a">│</text>
<text xml:space="preserve" y="141.09" x="18.00" fill="#d4b24a">│</text>
<text xml:space="preserve" y="141.09" x="36.60 45.90 55.20 64.50 73.80 83.10 92.40 101.70 111.00 120.30 129.60 138.90" fill="#f4cb4b" font-weight="bold">&#x27;*888!X8888&gt;</text>
<text xml:space="preserve" y="141.09" x="157.50 166.80 176.10 185.40 194.70" fill="#f4cb4b" font-weight="bold">X8888</text>
<text xml:space="preserve" y="141.09" x="222.60 231.90 241.20 250.50" fill="#f4cb4b" font-weight="bold">xH8&gt;</text>
<text xml:space="preserve" y="141.09" x="287.70 297.00 306.30 315.60" fill="#ddd6c6">with</text>
<text xml:space="preserve" y="141.09" x="334.20 343.50 352.80 362.10 371.40 380.70 390.00 399.30 408.60 417.90 427.20 436.50" fill="#ddd6c6">crustcrumbs,</text>
<text xml:space="preserve" y="141.09" x="455.10 464.40 473.70 483.00 492.30" fill="#ddd6c6">fried</text>
<text xml:space="preserve" y="141.09" x="510.90 520.20 529.50 538.80 548.10 557.40 566.70 576.00" fill="#ddd6c6">hencod&#x27;s</text>
<text xml:space="preserve" y="141.09" x="603.90" fill="#d4b24a">│</text>
<text xml:space="preserve" y="159.59" x="18.00" fill="#d4b24a">│</text>
<text xml:space="preserve" y="159.59" x="55.20 64.50 73.80" fill="#f4cb4b" font-weight="bold">`?8</text>
<text xml:space="preserve" y="159.59" x="92.40 101.70 111.00 120.30 129.60" fill="#f4cb4b" font-weight="bold">`8888</text>
<text xml:space="preserve" y="159.59" x="157.50 166.80 176.10 185.40 194.70" fill="#f4cb4b" font-weight="bold">X888X</text>
<text xml:space="preserve" y="159.59" x="213.30 222.60 231.90 241.20 250.50" fill="#f4cb4b" font-weight="bold">X888&gt;</text>
<text xml:space="preserve" y="159.59" x="287.70 297.00 306.30 315.60 324.90" fill="#ddd6c6">roes.</text>
<text xml:space="preserve" y="159.59" x="343.50 352.80 362.10 371.40" fill="#ddd6c6">Most</text>
<text xml:space="preserve" y="159.59" x="390.00 399.30" fill="#ddd6c6">of</text>
<text xml:space="preserve" y="159.59" x="417.90 427.20 436.50" fill="#ddd6c6">all</text>
<text xml:space="preserve" y="159.59" x="455.10 464.40" fill="#ddd6c6">he</text>
<text xml:space="preserve" y="159.59" x="483.00 492.30 501.60 510.90 520.20" fill="#ddd6c6">liked</text>
<text xml:space="preserve" y="159.59" x="603.90" fill="#d4b24a">│</text>
<text xml:space="preserve" y="178.09" x="18.00" fill="#d4b24a">│</text>
<text xml:space="preserve" y="178.09" x="55.20 64.50" fill="#f4cb4b" font-weight="bold">-^</text>
<text xml:space="preserve" y="178.09" x="92.40 101.70 111.00 120.30 129.60" fill="#f4cb4b" font-weight="bold">&#x27;888&quot;</text>
<text xml:space="preserve" y="178.09" x="157.50 166.80 176.10 185.40" fill="#f4cb4b" font-weight="bold">X888</text>
<text xml:space="preserve" y="178.09" x="213.30 222.60 231.90 241.20 250.50" fill="#f4cb4b" font-weight="bold">8888&gt;</text>
<text xml:space="preserve" y="178.09" x="287.70 297.00 306.30 315.60 324.90 334.20 343.50" fill="#ddd6c6">grilled</text>
<text xml:space="preserve" y="178.09" x="362.10 371.40 380.70 390.00 399.30 408.60" fill="#ddd6c6">mutton</text>
<text xml:space="preserve" y="178.09" x="427.20 436.50 445.80 455.10 464.40 473.70 483.00" fill="#ddd6c6">kidneys</text>
<text xml:space="preserve" y="178.09" x="501.60 510.90 520.20 529.50 538.80" fill="#ddd6c6">which</text>
<text xml:space="preserve" y="178.09" x="557.40 566.70 576.00 585.30" fill="#ddd6c6">gave</text>
<text xml:space="preserve" y="178.09" x="603.90" fill="#d4b24a">│</text>
<text xml:space="preserve" y="196.59" x="18.00" fill="#d4b24a">│</text>
<text xml:space="preserve" y="196.59" x="64.50 73.80" fill="#f4cb4b" font-weight="bold">dx</text>
<text xml:space="preserve" y="196.59" x="92.40 101.70 111.00 120.30 129.60 138.90" fill="#f4cb4b" font-weight="bold">&#x27;88~x.</text>
<text xml:space="preserve" y="196.59" x="157.50 166.80 176.10 185.40" fill="#f4cb4b" font-weight="bold">!88~</text>
<text xml:space="preserve" y="196.59" x="213.30 222.60 231.90 241.20 250.50" fill="#f4cb4b" font-weight="bold">8888&gt;</text>
<text xml:space="preserve" y="196.59" x="287.70 297.00" fill="#ddd6c6">to</text>
<text xml:space="preserve" y="196.59" x="315.60 324.90 334.20" fill="#ddd6c6">his</text>
<text xml:space="preserve" y="196.59" x="352.80 362.10 371.40 380.70 390.00 399.30" fill="#ddd6c6">palate</text>
<text xml:space="preserve" y="196.59" x="417.90" fill="#ddd6c6">a</text>
<text xml:space="preserve" y="196.59" x="436.50 445.80 455.10 464.40" fill="#ddd6c6">fine</text>
<text xml:space="preserve" y="196.59" x="483.00 492.30 501.60 510.90" fill="#ddd6c6">tang</text>
<text xml:space="preserve" y="196.59" x="529.50 538.80" fill="#ddd6c6">of</text>
<text xml:space="preserve" y="196.59" x="603.90" fill="#d4b24a">│</text>
<text xml:space="preserve" y="215.09" x="18.00" fill="#d4b24a">│</text>
<text xml:space="preserve" y="215.09" x="45.90 55.20 64.50 73.80 83.10 92.40 101.70 111.00 120.30 129.60 138.90 148.20 157.50 166.80" fill="#f4cb4b" font-weight="bold">.8888Xf.888x:!</text>
<text xml:space="preserve" y="215.09" x="213.30 222.60 231.90 241.20 250.50 259.80 269.10" fill="#f4cb4b" font-weight="bold">X888X.:</text>
<text xml:space="preserve" y="215.09" x="287.70 297.00 306.30 315.60 324.90 334.20 343.50" fill="#ddd6c6">faintly</text>
<text xml:space="preserve" y="215.09" x="362.10 371.40 380.70 390.00 399.30 408.60 417.90" fill="#ddd6c6">scented</text>
<text xml:space="preserve" y="215.09" x="436.50 445.80 455.10 464.40 473.70 483.00" fill="#ddd6c6">urine.</text>
<text xml:space="preserve" y="215.09" x="603.90" fill="#d4b24a">│</text>
<text xml:space="preserve" y="233.59" x="18.00" fill="#d4b24a">│</text>
<text xml:space="preserve" y="233.59" x="36.60 45.90 55.20 64.50 73.80 83.10 92.40 101.70 111.00 120.30 129.60 138.90 148.20 157.50" fill="#f4cb4b" font-weight="bold">:&quot;&quot;888&quot;:~&quot;888&quot;</text>
<text xml:space="preserve" y="233.59" x="213.30 222.60 231.90 241.20 250.50 259.80" fill="#f4cb4b" font-weight="bold">`888*&quot;</text>
<text xml:space="preserve" y="233.59" x="603.90" fill="#d4b24a">│</text>
<text xml:space="preserve" y="252.09" x="18.00" fill="#d4b24a">│</text>
<text xml:space="preserve" y="252.09" x="73.80 83.10 92.40" fill="#f4cb4b" font-weight="bold">&quot;~&#x27;</text>
<text xml:space="preserve" y="252.09" x="138.90 148.20" fill="#f4cb4b" font-weight="bold">&quot;~</text>
<text xml:space="preserve" y="252.09" x="231.90 241.20" fill="#f4cb4b" font-weight="bold">&quot;&quot;</text>
<text xml:space="preserve" y="252.09" x="603.90" fill="#d4b24a">│</text>
<text xml:space="preserve" y="270.59" x="18.00" fill="#d4b24a">│</text>
<text xml:space="preserve" y="270.59" x="603.90" fill="#d4b24a">│</text>
<text xml:space="preserve" y="289.09" x="18.00" fill="#d4b24a">│</text>
<text xml:space="preserve" y="289.09" x="36.60 45.90 55.20 64.50 73.80 83.10 92.40" fill="#ddd6c6">Kidneys</text>
<text xml:space="preserve" y="289.09" x="111.00 120.30 129.60 138.90" fill="#ddd6c6">were</text>
<text xml:space="preserve" y="289.09" x="157.50 166.80" fill="#ddd6c6">in</text>
<text xml:space="preserve" y="289.09" x="185.40 194.70 204.00" fill="#ddd6c6">his</text>
<text xml:space="preserve" y="289.09" x="222.60 231.90 241.20 250.50" fill="#ddd6c6">mind</text>
<text xml:space="preserve" y="289.09" x="269.10 278.40" fill="#ddd6c6">as</text>
<text xml:space="preserve" y="289.09" x="297.00 306.30" fill="#ddd6c6">he</text>
<text xml:space="preserve" y="289.09" x="324.90 334.20 343.50 352.80 362.10" fill="#ddd6c6">moved</text>
<text xml:space="preserve" y="289.09" x="380.70 390.00 399.30 408.60 417.90" fill="#ddd6c6">about</text>
<text xml:space="preserve" y="289.09" x="436.50 445.80 455.10" fill="#ddd6c6">the</text>
<text xml:space="preserve" y="289.09" x="473.70 483.00 492.30 501.60 510.90 520.20 529.50" fill="#ddd6c6">kitchen</text>
<text xml:space="preserve" y="289.09" x="603.90" fill="#d4b24a">│</text>
<text xml:space="preserve" y="307.59" x="18.00" fill="#d4b24a">│</text>
<text xml:space="preserve" y="307.59" x="36.60 45.90 55.20 64.50 73.80 83.10 92.40" fill="#ddd6c6">softly,</text>
<text xml:space="preserve" y="307.59" x="111.00 120.30 129.60 138.90 148.20 157.50 166.80 176.10" fill="#ddd6c6">righting</text>
<text xml:space="preserve" y="307.59" x="194.70 204.00 213.30" fill="#ddd6c6">her</text>
<text xml:space="preserve" y="307.59" x="231.90 241.20 250.50 259.80 269.10 278.40 287.70 297.00 306.30" fill="#ddd6c6">breakfast</text>
<text xml:space="preserve" y="307.59" x="324.90 334.20 343.50 352.80 362.10 371.40" fill="#ddd6c6">things</text>
<text xml:space="preserve" y="307.59" x="390.00 399.30" fill="#ddd6c6">on</text>
<text xml:space="preserve" y="307.59" x="417.90 427.20 436.50" fill="#ddd6c6">the</text>
<text xml:space="preserve" y="307.59" x="455.10 464.40 473.70 483.00 492.30" fill="#ddd6c6">humpy</text>
<text xml:space="preserve" y="307.59" x="510.90 520.20 529.50 538.80 548.10" fill="#ddd6c6">tray.</text>
<text xml:space="preserve" y="307.59" x="603.90" fill="#d4b24a">│</text>
<text xml:space="preserve" y="326.09" x="18.00" fill="#d4b24a">│</text>
<text xml:space="preserve" y="326.09" x="36.60 45.90 55.20 64.50 73.80" fill="#ddd6c6">Gelid</text>
<text xml:space="preserve" y="326.09" x="92.40 101.70 111.00 120.30 129.60" fill="#ddd6c6">light</text>
<text xml:space="preserve" y="326.09" x="148.20 157.50 166.80" fill="#ddd6c6">and</text>
<text xml:space="preserve" y="326.09" x="185.40 194.70 204.00" fill="#ddd6c6">air</text>
<text xml:space="preserve" y="326.09" x="222.60 231.90 241.20 250.50" fill="#ddd6c6">were</text>
<text xml:space="preserve" y="326.09" x="269.10 278.40" fill="#ddd6c6">in</text>
<text xml:space="preserve" y="326.09" x="297.00 306.30 315.60" fill="#ddd6c6">the</text>
<text xml:space="preserve" y="326.09" x="334.20 343.50 352.80 362.10 371.40 380.70 390.00" fill="#ddd6c6">kitchen</text>
<text xml:space="preserve" y="326.09" x="408.60 417.90 427.20" fill="#ddd6c6">but</text>
<text xml:space="preserve" y="326.09" x="445.80 455.10 464.40" fill="#ddd6c6">out</text>
<text xml:space="preserve" y="326.09" x="483.00 492.30" fill="#ddd6c6">of</text>
<text xml:space="preserve" y="326.09" x="510.90 520.20 529.50 538.80 548.10" fill="#ddd6c6">doors</text>
<text xml:space="preserve" y="326.09" x="603.90" fill="#d4b24a">│</text>
<text xml:space="preserve" y="344.59" x="18.00" fill="#d4b24a">│</text>
<text xml:space="preserve" y="344.59" x="36.60 45.90 55.20 64.50 73.80 83.10" fill="#ddd6c6">gentle</text>
<text xml:space="preserve" y="344.59" x="101.70 111.00 120.30 129.60 138.90 148.20" fill="#ddd6c6">summer</text>
<text xml:space="preserve" y="344.59" x="166.80 176.10 185.40 194.70 204.00 213.30 222.60" fill="#ddd6c6">morning</text>
<text xml:space="preserve" y="344.59" x="241.20 250.50 259.80 269.10 278.40 287.70 297.00 306.30 315.60 324.90 334.20" fill="#ddd6c6">everywhere.</text>
<text xml:space="preserve" y="344.59" x="352.80 362.10 371.40 380.70" fill="#ddd6c6">Made</text>
<text xml:space="preserve" y="344.59" x="399.30 408.60 417.90" fill="#ddd6c6">him</text>
<text xml:space="preserve" y="344.59" x="436.50 445.80 455.10 464.40" fill="#ddd6c6">feel</text>
<text xml:space="preserve" y="344.59" x="483.00" fill="#ddd6c6">a</text>
<text xml:space="preserve" y="344.59" x="501.60 510.90 520.20" fill="#ddd6c6">bit</text>
<text xml:space="preserve" y="344.59" x="603.90" fill="#d4b24a">│</text>
<text xml:space="preserve" y="363.09" x="18.00" fill="#d4b24a">│</text>
<text xml:space="preserve" y="363.09" x="36.60 45.90 55.20 64.50 73.80 83.10 92.40 101.70" fill="#ddd6c6">peckish.</text>
<text xml:space="preserve" y="363.09" x="603.90" fill="#d4b24a">│</text>
<text xml:space="preserve" y="381.59" x="18.00" fill="#d4b24a">│</text>
<text xml:space="preserve" y="381.59" x="603.90" fill="#d4b24a">│</text>
<text xml:space="preserve" y="400.09" x="18.00" fill="#d4b24a">│</text>
<text xml:space="preserve" y="400.09" x="36.60 45.90 55.20" fill="#ddd6c6">The</text>
<text xml:space="preserve" y="400.09" x="73.80 83.10 92.40 101.70 111.00" fill="#ddd6c6">coals</text>
<text xml:space="preserve" y="400.09" x="129.60 138.90 148.20 157.50" fill="#ddd6c6">were</text>
<text xml:space="preserve" y="400.09" x="176.10 185.40 194.70 204.00 213.30 222.60 231.90 241.20 250.50 259.80" fill="#ddd6c6">reddening.</text>
<text xml:space="preserve" y="400.09" x="603.90" fill="#d4b24a">│</text>
<text xml:space="preserve" y="418.59" x="18.00" fill="#d4b24a">│</text>
<text xml:space="preserve" y="418.59" x="603.90" fill="#d4b24a">│</text>
<text xml:space="preserve" y="437.09" x="18.00" fill="#d4b24a">│</text>
<text xml:space="preserve" y="437.09" x="36.60 45.90 55.20 64.50 73.80 83.10 92.40" fill="#ddd6c6">Another</text>
<text xml:space="preserve" y="437.09" x="111.00 120.30 129.60 138.90 148.20" fill="#ddd6c6">slice</text>
<text xml:space="preserve" y="437.09" x="166.80 176.10" fill="#ddd6c6">of</text>
<text xml:space="preserve" y="437.09" x="194.70 204.00 213.30 222.60 231.90" fill="#ddd6c6">bread</text>
<text xml:space="preserve" y="437.09" x="250.50 259.80 269.10" fill="#ddd6c6">and</text>
<text xml:space="preserve" y="437.09" x="287.70 297.00 306.30 315.60 324.90 334.20 343.50" fill="#ddd6c6">butter:</text>
<text xml:space="preserve" y="437.09" x="362.10 371.40 380.70 390.00 399.30 408.60" fill="#ddd6c6">three,</text>
<text xml:space="preserve" y="437.09" x="427.20 436.50 445.80 455.10 464.40" fill="#ddd6c6">four:</text>
<text xml:space="preserve" y="437.09" x="483.00 492.30 501.60 510.90 520.20 529.50" fill="#ddd6c6">right.</text>
<text xml:space="preserve" y="437.09" x="548.10 557.40 566.70" fill="#ddd6c6">She</text>
<text xml:space="preserve" y="437.09" x="603.90" fill="#d4b24a">│</text>
<text xml:space="preserve" y="455.59" x="18.00" fill="#d4b24a">│</text>
<text xml:space="preserve" y="455.59" x="36.60 45.90 55.20 64.50 73.80 83.10" fill="#ddd6c6">didn&#x27;t</text>
<text xml:space="preserve" y="455.59" x="101.70 111.00 120.30 129.60" fill="#ddd6c6">like</text>
<text xml:space="preserve" y="455.59" x="148.20 157.50 166.80" fill="#ddd6c6">her</text>
<text xml:space="preserve" y="455.59" x="185.40 194.70 204.00 213.30 222.60" fill="#ddd6c6">plate</text>
<text xml:space="preserve" y="455.59" x="241.20 250.50 259.80 269.10 278.40" fill="#ddd6c6">full.</text>
<text xml:space="preserve" y="455.59" x="297.00 306.30 315.60 324.90 334.20 343.50" fill="#ddd6c6">Right.</text>
<text xml:space="preserve" y="455.59" x="362.10 371.40" fill="#ddd6c6">He</text>
<text xml:space="preserve" y="455.59" x="390.00 399.30 408.60 417.90 427.20 436.50" fill="#ddd6c6">turned</text>
<text xml:space="preserve" y="455.59" x="455.10 464.40 473.70 483.00" fill="#ddd6c6">from</text>
<text xml:space="preserve" y="455.59" x="501.60 510.90 520.20" fill="#ddd6c6">the</text>
<text xml:space="preserve" y="455.59" x="538.80 548.10 557.40 566.70 576.00" fill="#ddd6c6">tray,</text>
<text xml:space="preserve" y="455.59" x="603.90" fill="#d4b24a">│</text>
<text xml:space="preserve" y="474.09" x="18.00" fill="#d4b24a">│</text>
<text xml:space="preserve" y="474.09" x="36.60 45.90 55.20 64.50 73.80 83.10" fill="#ddd6c6">lifted</text>
<text xml:space="preserve" y="474.09" x="101.70 111.00 120.30" fill="#ddd6c6">the</text>
<text xml:space="preserve" y="474.09" x="138.90 148.20 157.50 166.80 176.10 185.40" fill="#ddd6c6">kettle</text>
<text xml:space="preserve" y="474.09" x="204.00 213.30 222.60" fill="#ddd6c6">off</text>
<text xml:space="preserve" y="474.09" x="241.20 250.50 259.80" fill="#ddd6c6">the</text>
<text xml:space="preserve" y="474.09" x="278.40 287.70 297.00" fill="#ddd6c6">hob</text>
<text xml:space="preserve" y="474.09" x="315.60 324.90 334.20" fill="#ddd6c6">and</text>
<text xml:space="preserve" y="474.09" x="352.80 362.10 371.40" fill="#ddd6c6">set</text>
<text xml:space="preserve" y="474.09" x="390.00 399.30" fill="#ddd6c6">it</text>
<text xml:space="preserve" y="474.09" x="417.90 427.20 436.50 445.80 455.10 464.40 473.70 483.00" fill="#ddd6c6">sideways</text>
<text xml:space="preserve" y="474.09" x="501.60 510.90" fill="#ddd6c6">on</text>
<text xml:space="preserve" y="474.09" x="529.50 538.80 548.10" fill="#ddd6c6">the</text>
<text xml:space="preserve" y="474.09" x="603.90" fill="#d4b24a">│</text>
<text xml:space="preserve" y="492.59" x="18.00" fill="#d4b24a">│</text>
<text xml:space="preserve" y="492.59" x="36.60 45.90 55.20 64.50 73.80" fill="#ddd6c6">fire.</text>
<text xml:space="preserve" y="492.59" x="92.40 101.70" fill="#ddd6c6">It</text>
<text xml:space="preserve" y="492.59" x="120.30 129.60 138.90" fill="#ddd6c6">sat</text>
<text xml:space="preserve" y="492.59" x="157.50 166.80 176.10 185.40 194.70 204.00" fill="#ddd6c6">there,</text>
<text xml:space="preserve" y="492.59" x="222.60 231.90 241.20 250.50" fill="#ddd6c6">dull</text>
<text xml:space="preserve" y="492.59" x="269.10 278.40 287.70" fill="#ddd6c6">and</text>
<text xml:space="preserve" y="492.59" x="306.30 315.60 324.90 334.20 343.50 352.80" fill="#ddd6c6">squat,</text>
<text xml:space="preserve" y="492.59" x="371.40 380.70 390.00" fill="#ddd6c6">its</text>
<text xml:space="preserve" y="492.59" x="408.60 417.90 427.20 436.50 445.80" fill="#ddd6c6">spout</text>
<text xml:space="preserve" y="492.59" x="464.40 473.70 483.00 492.30 501.60" fill="#ddd6c6">stuck</text>
<text xml:space="preserve" y="492.59" x="520.20 529.50 538.80 548.10" fill="#ddd6c6">out.</text>
<text xml:space="preserve" y="492.59" x="566.70 576.00 585.30" fill="#ddd6c6">Cup</text>
<text xml:space="preserve" y="492.59" x="603.90" fill="#d4b24a">│</text>
<text xml:space="preserve" y="511.09" x="18.00" fill="#d4b24a">│</text>
<text xml:space="preserve" y="511.09" x="36.60 45.90" fill="#ddd6c6">of</text>
<text xml:space="preserve" y="511.09" x="64.50 73.80 83.10" fill="#ddd6c6">tea</text>
<text xml:space="preserve" y="511.09" x="101.70 111.00 120.30 129.60 138.90" fill="#ddd6c6">soon.</text>
<text xml:space="preserve" y="511.09" x="157.50 166.80 176.10 185.40 194.70" fill="#ddd6c6">Good.</text>
<text xml:space="preserve" y="511.09" x="213.30 222.60 231.90 241.20 250.50" fill="#ddd6c6">Mouth</text>
<text xml:space="preserve" y="511.09" x="269.10 278.40 287.70 297.00" fill="#ddd6c6">dry.</text>
<text xml:space="preserve" y="511.09" x="315.60 324.90 334.20" fill="#ddd6c6">The</text>
<text xml:space="preserve" y="511.09" x="352.80 362.10 371.40" fill="#ddd6c6">cat</text>
<text xml:space="preserve" y="511.09" x="390.00 399.30 408.60 417.90 427.20 436.50" fill="#ddd6c6">walked</text>
<text xml:space="preserve" y="511.09" x="455.10 464.40 473.70 483.00 492.30 501.60 510.90" fill="#ddd6c6">stiffly</text>
<text xml:space="preserve" y="511.09" x="529.50 538.80 548.10 557.40 566.70" fill="#ddd6c6">round</text>
<text xml:space="preserve" y="511.09" x="585.30" fill="#ddd6c6">a</text>
<text xml:space="preserve" y="511.09" x="603.90" fill="#d4b24a">│</text>
<text xml:space="preserve" y="529.59" x="18.00" fill="#d4b24a">│</text>
<text xml:space="preserve" y="529.59" x="36.60 45.90 55.20" fill="#ddd6c6">leg</text>
<text xml:space="preserve" y="529.59" x="73.80 83.10" fill="#ddd6c6">of</text>
<text xml:space="preserve" y="529.59" x="101.70 111.00 120.30" fill="#ddd6c6">the</text>
<text xml:space="preserve" y="529.59" x="138.90 148.20 157.50 166.80 176.10" fill="#ddd6c6">table</text>
<text xml:space="preserve" y="529.59" x="194.70 204.00 213.30 222.60" fill="#ddd6c6">with</text>
<text xml:space="preserve" y="529.59" x="241.20 250.50 259.80 269.10" fill="#ddd6c6">tail</text>
<text xml:space="preserve" y="529.59" x="287.70 297.00" fill="#ddd6c6">on</text>
<text xml:space="preserve" y="529.59" x="315.60 324.90 334.20 343.50 352.80" fill="#ddd6c6">high.</text>
<text xml:space="preserve" y="529.59" x="603.90" fill="#d4b24a">│</text>
<text xml:space="preserve" y="548.09" x="18.00 27.30 36.60 45.90 55.20 64.50 73.80 83.10 92.40 101.70 111.00 120.30 129.60 138.90 148.20 157.50 166.80 176.10 185.40 194.70 204.00 213.30 222.60 231.90 241.20 250.50 259.80 269.10 278.40 287.70 297.00 306.30 315.60 324.90 334.20 343.50 352.80 362.10 371.40 380.70 390.00 399.30 408.60 417.90 427.20 436.50 445.80 455.10 464.40 473.70 483.00 492.30 501.60 510.90 520.20 529.50 538.80 548.10 557.40 566.70 576.00 585.30 594.60 603.90" fill="#d4b24a">╰───────────────────────────────❦──────────────────────────────╯</text>
</svg>
