<!-- Generated by scripts/render-banner.py — the most elaborate lindisfarner page. Do not edit by hand. -->
<svg xmlns="http://www.w3.org/2000/svg" width="1050" height="332" viewBox="0 0 1050 332" font-family="ui-monospace, SFMono-Regular, Menlo, Consolas, &quot;DejaVu Sans Mono&quot;, monospace" font-size="15.5">
<rect x="0.5" y="0.5" width="1049" height="331" rx="11" fill="#171717" stroke="#3a3320"/>
<text xml:space="preserve" y="30.09" x="18.00 27.30 36.60 45.90 55.20 64.50 73.80 83.10 92.40 101.70 111.00 120.30 129.60 138.90 148.20 157.50 166.80 176.10 185.40 194.70 204.00 213.30 222.60 231.90 241.20 250.50 259.80 269.10 278.40 287.70 297.00 306.30 315.60 324.90 334.20 343.50 352.80 362.10 371.40 380.70 390.00 399.30 408.60 417.90 427.20 436.50 445.80 455.10 464.40 473.70 483.00 492.30 501.60 510.90 520.20 529.50 538.80 548.10 557.40 566.70 576.00 585.30 594.60 603.90 613.20 622.50 631.80 641.10 650.40 659.70 669.00 678.30 687.60 696.90 706.20 715.50 724.80 734.10 743.40 752.70 762.00 771.30 780.60 789.90 799.20 808.50 817.80 827.10 836.40 845.70 855.00 864.30 873.60 882.90 892.20 901.50 910.80 920.10 929.40 938.70 948.00 957.30 966.60 975.90 985.20 994.50 1003.80 1013.10 1022.40" fill="#d4b24a">╭─────────────────────────────────────────────────────❦─────────────────────────────────────────────────────╮</text>
<text xml:space="preserve" y="48.59" x="18.00" fill="#d4b24a">│</text>
<text xml:space="preserve" y="48.59" x="45.90 55.20 64.50 73.80 83.10" fill="#d4b24a">(\_/)</text>
<text xml:space="preserve" y="48.59" x="111.00" fill="#d4b24a">┊</text>
<text xml:space="preserve" y="48.59" x="166.80 176.10 185.40" fill="#f4cb4b" font-weight="bold">...</text>
<text xml:space="preserve" y="48.59" x="241.20 250.50" fill="#f4cb4b" font-weight="bold">..</text>
<text xml:space="preserve" y="48.59" x="315.60 324.90" fill="#f4cb4b" font-weight="bold">..</text>
<text xml:space="preserve" y="48.59" x="380.70" fill="#e5675a" font-weight="bold">r</text>
<text xml:space="preserve" y="48.59" x="399.30 408.60 417.90 427.20 436.50 445.80 455.10" fill="#e5675a" font-weight="bold">Leopold</text>
<text xml:space="preserve" y="48.59" x="473.70 483.00 492.30 501.60 510.90" fill="#e5675a" font-weight="bold">Bloom</text>
<text xml:space="preserve" y="48.59" x="529.50 538.80 548.10" fill="#e5675a" font-weight="bold">ate</text>
<text xml:space="preserve" y="48.59" x="585.30 594.60 603.90 613.20 622.50 631.80 641.10" fill="#e5675a" font-weight="bold">Kidneys</text>
<text xml:space="preserve" y="48.59" x="659.70 669.00 678.30 687.60" fill="#ddd6c6">were</text>
<text xml:space="preserve" y="48.59" x="706.20 715.50" fill="#ddd6c6">in</text>
<text xml:space="preserve" y="48.59" x="734.10 743.40 752.70" fill="#ddd6c6">his</text>
<text xml:space="preserve" y="48.59" x="771.30 780.60 789.90 799.20" fill="#ddd6c6">mind</text>
<text xml:space="preserve" y="48.59" x="817.80 827.10" fill="#ddd6c6">as</text>
<text xml:space="preserve" y="48.59" x="845.70 855.00" fill="#ddd6c6">he</text>
<text xml:space="preserve" y="48.59" x="873.60 882.90 892.20 901.50 910.80" fill="#ddd6c6">moved</text>
<text xml:space="preserve" y="48.59" x="929.40 938.70 948.00 957.30 966.60" fill="#ddd6c6">about</text>
<text xml:space="preserve" y="48.59" x="985.20 994.50 1003.80" fill="#ddd6c6">the</text>
<text xml:space="preserve" y="48.59" x="1022.40" fill="#d4b24a">│</text>
<text xml:space="preserve" y="67.09" x="18.00" fill="#d4b24a">│</text>
<text xml:space="preserve" y="67.09" x="36.60 45.90 55.20 64.50 73.80 83.10 92.40" fill="#d4b24a">(=&#x27;.&#x27;=)</text>
<text xml:space="preserve" y="67.09" x="111.00" fill="#d4b24a">┊</text>
<text xml:space="preserve" y="67.09" x="148.20 157.50 166.80 176.10 185.40 194.70 204.00 213.30 222.60 231.90 241.20 250.50 259.80 269.10 278.40" fill="#f4cb4b" font-weight="bold">x*8888x.:*8888:</text>
<text xml:space="preserve" y="67.09" x="297.00 306.30 315.60 324.90 334.20 343.50" fill="#f4cb4b" font-weight="bold">-&quot;888:</text>
<text xml:space="preserve" y="67.09" x="380.70 390.00 399.30 408.60" fill="#ddd6c6">with</text>
<text xml:space="preserve" y="67.09" x="445.80 455.10 464.40 473.70 483.00 492.30" fill="#ddd6c6">relish</text>
<text xml:space="preserve" y="67.09" x="529.50 538.80 548.10" fill="#ddd6c6">the</text>
<text xml:space="preserve" y="67.09" x="585.30 594.60 603.90 613.20 622.50 631.80 641.10" fill="#ddd6c6">kitchen</text>
<text xml:space="preserve" y="67.09" x="669.00 678.30 687.60 696.90 706.20 715.50 724.80" fill="#ddd6c6">softly,</text>
<text xml:space="preserve" y="67.09" x="743.40 752.70 762.00 771.30 780.60 789.90 799.20 808.50" fill="#ddd6c6">righting</text>
<text xml:space="preserve" y="67.09" x="827.10 836.40 845.70" fill="#ddd6c6">her</text>
<text xml:space="preserve" y="67.09" x="864.30 873.60 882.90 892.20 901.50 910.80 920.10 929.40 938.70" fill="#ddd6c6">breakfast</text>
<text xml:space="preserve" y="67.09" x="957.30 966.60 975.90 985.20 994.50 1003.80" fill="#ddd6c6">things</text>
<text xml:space="preserve" y="67.09" x="1022.40" fill="#d4b24a">│</text>
<text xml:space="preserve" y="85.59" x="18.00" fill="#d4b24a">│</text>
<text xml:space="preserve" y="85.59" x="36.60 45.90 55.20 64.50 73.80 83.10 92.40" fill="#d4b24a">(&quot;)_(&quot;)</text>
<text xml:space="preserve" y="85.59" x="111.00" fill="#d4b24a">┊</text>
<text xml:space="preserve" y="85.59" x="138.90" fill="#f4cb4b" font-weight="bold">X</text>
<text xml:space="preserve" y="85.59" x="176.10 185.40 194.70 204.00 213.30 222.60" fill="#f4cb4b" font-weight="bold">48888X</text>
<text xml:space="preserve" y="85.59" x="241.20 250.50 259.80 269.10 278.40 287.70" fill="#f4cb4b" font-weight="bold">`8888H</text>
<text xml:space="preserve" y="85.59" x="315.60 324.90 334.20 343.50" fill="#f4cb4b" font-weight="bold">8888</text>
<text xml:space="preserve" y="85.59" x="380.70 390.00 399.30 408.60 417.90" fill="#ddd6c6">inner</text>
<text xml:space="preserve" y="85.59" x="455.10 464.40 473.70 483.00 492.30 501.60" fill="#ddd6c6">organs</text>
<text xml:space="preserve" y="85.59" x="538.80 548.10" fill="#ddd6c6">of</text>
<text xml:space="preserve" y="85.59" x="585.30 594.60" fill="#ddd6c6">on</text>
<text xml:space="preserve" y="85.59" x="613.20 622.50 631.80" fill="#ddd6c6">the</text>
<text xml:space="preserve" y="85.59" x="650.40 659.70 669.00 678.30 687.60" fill="#ddd6c6">humpy</text>
<text xml:space="preserve" y="85.59" x="706.20 715.50 724.80 734.10 743.40" fill="#ddd6c6">tray.</text>
<text xml:space="preserve" y="85.59" x="762.00 771.30 780.60 789.90 799.20" fill="#ddd6c6">Gelid</text>
<text xml:space="preserve" y="85.59" x="817.80 827.10 836.40 845.70 855.00" fill="#ddd6c6">light</text>
<text xml:space="preserve" y="85.59" x="873.60 882.90 892.20" fill="#ddd6c6">and</text>
<text xml:space="preserve" y="85.59" x="910.80 920.10 929.40" fill="#ddd6c6">air</text>
<text xml:space="preserve" y="85.59" x="948.00 957.30 966.60 975.90" fill="#ddd6c6">were</text>
<text xml:space="preserve" y="85.59" x="994.50 1003.80" fill="#ddd6c6">in</text>
<text xml:space="preserve" y="85.59" x="1022.40" fill="#d4b24a">│</text>
<text xml:space="preserve" y="104.09" x="18.00" fill="#d4b24a">│</text>
<text xml:space="preserve" y="104.09" x="111.00" fill="#d4b24a">┊</text>
<text xml:space="preserve" y="104.09" x="129.60 138.90 148.20 157.50" fill="#f4cb4b" font-weight="bold">X8x.</text>
<text xml:space="preserve" y="104.09" x="185.40 194.70 204.00 213.30 222.60" fill="#f4cb4b" font-weight="bold">8888X</text>
<text xml:space="preserve" y="104.09" x="250.50 259.80 269.10 278.40 287.70" fill="#f4cb4b" font-weight="bold">8888X</text>
<text xml:space="preserve" y="104.09" x="315.60 324.90 334.20 343.50 352.80" fill="#f4cb4b" font-weight="bold">!888&gt;</text>
<text xml:space="preserve" y="104.09" x="380.70 390.00 399.30 408.60 417.90 427.20" fill="#ddd6c6">beasts</text>
<text xml:space="preserve" y="104.09" x="455.10 464.40 473.70" fill="#ddd6c6">and</text>
<text xml:space="preserve" y="104.09" x="501.60 510.90 520.20 529.50 538.80 548.10" fill="#ddd6c6">fowls.</text>
<text xml:space="preserve" y="104.09" x="585.30 594.60 603.90" fill="#ddd6c6">the</text>
<text xml:space="preserve" y="104.09" x="631.80 641.10 650.40 659.70 669.00 678.30 687.60" fill="#ddd6c6">kitchen</text>
<text xml:space="preserve" y="104.09" x="715.50 724.80 734.10" fill="#ddd6c6">but</text>
<text xml:space="preserve" y="104.09" x="762.00 771.30 780.60" fill="#ddd6c6">out</text>
<text xml:space="preserve" y="104.09" x="808.50 817.80" fill="#ddd6c6">of</text>
<text xml:space="preserve" y="104.09" x="836.40 845.70 855.00 864.30 873.60" fill="#ddd6c6">doors</text>
<text xml:space="preserve" y="104.09" x="892.20 901.50 910.80 920.10 929.40 938.70" fill="#ddd6c6">gentle</text>
<text xml:space="preserve" y="104.09" x="957.30 966.60 975.90 985.20 994.50 1003.80" fill="#ddd6c6">summer</text>
<text xml:space="preserve" y="104.09" x="1022.40" fill="#d4b24a">│</text>
<text xml:space="preserve" y="122.59" x="18.00" fill="#d4b24a">│</text>
<text xml:space="preserve" y="122.59" x="111.00" fill="#d4b24a">┊</text>
<text xml:space="preserve" y="122.59" x="129.60 138.90 148.20 157.50 166.80" fill="#f4cb4b" font-weight="bold">X8888</text>
<text xml:space="preserve" y="122.59" x="185.40 194.70 204.00 213.30 222.60" fill="#f4cb4b" font-weight="bold">X8888</text>
<text xml:space="preserve" y="122.59" x="250.50 259.80 269.10 278.40 287.70" fill="#f4cb4b" font-weight="bold">88888</text>
<text xml:space="preserve" y="122.59" x="324.90 334.20 343.50 352.80 362.10" fill="#f4cb4b" font-weight="bold">&quot;*8%-</text>
<text xml:space="preserve" y="122.59" x="380.70 390.00" fill="#ddd6c6">He</text>
<text xml:space="preserve" y="122.59" x="436.50 445.80 455.10 464.40 473.70" fill="#ddd6c6">liked</text>
<text xml:space="preserve" y="122.59" x="510.90 520.20 529.50 538.80 548.10" fill="#ddd6c6">thick</text>
<text xml:space="preserve" y="122.59" x="585.30 594.60 603.90 613.20 622.50 631.80 641.10" fill="#ddd6c6">morning</text>
<text xml:space="preserve" y="122.59" x="678.30 687.60 696.90 706.20 715.50 724.80 734.10 743.40 752.70 762.00 771.30" fill="#ddd6c6">everywhere.</text>
<text xml:space="preserve" y="122.59" x="799.20 808.50 817.80 827.10" fill="#ddd6c6">Made</text>
<text xml:space="preserve" y="122.59" x="855.00 864.30 873.60" fill="#ddd6c6">him</text>
<text xml:space="preserve" y="122.59" x="901.50 910.80 920.10 929.40" fill="#ddd6c6">feel</text>
<text xml:space="preserve" y="122.59" x="957.30" fill="#ddd6c6">a</text>
<text xml:space="preserve" y="122.59" x="985.20 994.50 1003.80" fill="#ddd6c6">bit</text>
<text xml:space="preserve" y="122.59" x="1022.40" fill="#d4b24a">│</text>
<text xml:space="preserve" y="141.09" x="18.00" fill="#d4b24a">│</text>
<text xml:space="preserve" y="141.09" x="111.00" fill="#d4b24a">┊</text>
<text xml:space="preserve" y="141.09" x="129.60 138.90 148.20 157.50 166.80 176.10 185.40 194.70 204.00 213.30 222.60 231.90" fill="#f4cb4b" font-weight="bold">&#x27;*888!X8888&gt;</text>
<text xml:space="preserve" y="141.09" x="250.50 259.80 269.10 278.40 287.70" fill="#f4cb4b" font-weight="bold">X8888</text>
<text xml:space="preserve" y="141.09" x="315.60 324.90 334.20 343.50" fill="#f4cb4b" font-weight="bold">xH8&gt;</text>
<text xml:space="preserve" y="141.09" x="380.70 390.00 399.30 408.60 417.90 427.20" fill="#ddd6c6">giblet</text>
<text xml:space="preserve" y="141.09" x="455.10 464.40 473.70 483.00 492.30" fill="#ddd6c6">soup,</text>
<text xml:space="preserve" y="141.09" x="510.90 520.20 529.50 538.80 548.10" fill="#ddd6c6">nutty</text>
<text xml:space="preserve" y="141.09" x="585.30 594.60 603.90 613.20 622.50 631.80 641.10 650.40" fill="#ddd6c6">peckish.</text>
<text xml:space="preserve" y="141.09" x="669.00" fill="#6a93d4" font-weight="bold">¶</text>
<text xml:space="preserve" y="141.09" x="687.60 696.90 706.20" fill="#ddd6c6">The</text>
<text xml:space="preserve" y="141.09" x="724.80 734.10 743.40 752.70 762.00" fill="#ddd6c6">coals</text>
<text xml:space="preserve" y="141.09" x="780.60 789.90 799.20 808.50" fill="#ddd6c6">were</text>
<text xml:space="preserve" y="141.09" x="827.10 836.40 845.70 855.00 864.30 873.60 882.90 892.20 901.50 910.80" fill="#ddd6c6">reddening.</text>
<text xml:space="preserve" y="141.09" x="929.40" fill="#e5675a" font-weight="bold">¶</text>
<text xml:space="preserve" y="141.09" x="948.00 957.30 966.60 975.90 985.20 994.50 1003.80" fill="#ddd6c6">Another</text>
<text xml:space="preserve" y="141.09" x="1022.40" fill="#d4b24a">│</text>
<text xml:space="preserve" y="159.59" x="18.00" fill="#d4b24a">│</text>
<text xml:space="preserve" y="159.59" x="45.90" fill="#d4b24a">❧</text>
<text xml:space="preserve" y="159.59" x="111.00" fill="#d4b24a">┊</text>
<text xml:space="preserve" y="159.59" x="148.20 157.50 166.80" fill="#f4cb4b" font-weight="bold">`?8</text>
<text xml:space="preserve" y="159.59" x="185.40 194.70 204.00 213.30 222.60" fill="#f4cb4b" font-weight="bold">`8888</text>
<text xml:space="preserve" y="159.59" x="250.50 259.80 269.10 278.40 287.70" fill="#f4cb4b" font-weight="bold">X888X</text>
<text xml:space="preserve" y="159.59" x="306.30 315.60 324.90 334.20 343.50" fill="#f4cb4b" font-weight="bold">X888&gt;</text>
<text xml:space="preserve" y="159.59" x="380.70 390.00 399.30 408.60 417.90 427.20 436.50 445.80 455.10" fill="#ddd6c6">gizzards,</text>
<text xml:space="preserve" y="159.59" x="473.70" fill="#ddd6c6">a</text>
<text xml:space="preserve" y="159.59" x="492.30 501.60 510.90 520.20 529.50 538.80 548.10" fill="#ddd6c6">stuffed</text>
<text xml:space="preserve" y="159.59" x="585.30 594.60 603.90 613.20 622.50" fill="#ddd6c6">slice</text>
<text xml:space="preserve" y="159.59" x="641.10 650.40" fill="#ddd6c6">of</text>
<text xml:space="preserve" y="159.59" x="669.00 678.30 687.60 696.90 706.20" fill="#ddd6c6">bread</text>
<text xml:space="preserve" y="159.59" x="724.80 734.10 743.40" fill="#ddd6c6">and</text>
<text xml:space="preserve" y="159.59" x="762.00 771.30 780.60 789.90 799.20 808.50 817.80" fill="#ddd6c6">butter:</text>
<text xml:space="preserve" y="159.59" x="836.40 845.70 855.00 864.30 873.60 882.90" fill="#ddd6c6">three,</text>
<text xml:space="preserve" y="159.59" x="901.50 910.80 920.10 929.40 938.70" fill="#ddd6c6">four:</text>
<text xml:space="preserve" y="159.59" x="957.30 966.60 975.90 985.20 994.50 1003.80" fill="#ddd6c6">right.</text>
<text xml:space="preserve" y="159.59" x="1022.40" fill="#d4b24a">│</text>
<text xml:space="preserve" y="178.09" x="18.00" fill="#d4b24a">│</text>
<text xml:space="preserve" y="178.09" x="45.90" fill="#d4b24a">|</text>
<text xml:space="preserve" y="178.09" x="111.00" fill="#d4b24a">┊</text>
<text xml:space="preserve" y="178.09" x="148.20 157.50" fill="#f4cb4b" font-weight="bold">-^</text>
<text xml:space="preserve" y="178.09" x="185.40 194.70 204.00 213.30 222.60" fill="#f4cb4b" font-weight="bold">&#x27;888&quot;</text>
<text xml:space="preserve" y="178.09" x="250.50 259.80 269.10 278.40" fill="#f4cb4b" font-weight="bold">X888</text>
<text xml:space="preserve" y="178.09" x="306.30 315.60 324.90 334.20 343.50" fill="#f4cb4b" font-weight="bold">8888&gt;</text>
<text xml:space="preserve" y="178.09" x="380.70 390.00 399.30 408.60 417.90" fill="#ddd6c6">roast</text>
<text xml:space="preserve" y="178.09" x="445.80 455.10 464.40 473.70 483.00 492.30" fill="#ddd6c6">heart,</text>
<text xml:space="preserve" y="178.09" x="510.90 520.20 529.50 538.80 548.10" fill="#ddd6c6">liver</text>
<text xml:space="preserve" y="178.09" x="585.30 594.60 603.90" fill="#ddd6c6">She</text>
<text xml:space="preserve" y="178.09" x="631.80 641.10 650.40 659.70 669.00 678.30" fill="#ddd6c6">didn&#x27;t</text>
<text xml:space="preserve" y="178.09" x="706.20 715.50 724.80 734.10" fill="#ddd6c6">like</text>
<text xml:space="preserve" y="178.09" x="762.00 771.30 780.60" fill="#ddd6c6">her</text>
<text xml:space="preserve" y="178.09" x="808.50 817.80 827.10 836.40 845.70" fill="#ddd6c6">plate</text>
<text xml:space="preserve" y="178.09" x="873.60 882.90 892.20 901.50 910.80" fill="#ddd6c6">full.</text>
<text xml:space="preserve" y="178.09" x="929.40 938.70 948.00 957.30 966.60 975.90" fill="#ddd6c6">Right.</text>
<text xml:space="preserve" y="178.09" x="994.50 1003.80" fill="#ddd6c6">He</text>
<text xml:space="preserve" y="178.09" x="1022.40" fill="#d4b24a">│</text>
<text xml:space="preserve" y="196.59" x="18.00" fill="#d4b24a">│</text>
<text xml:space="preserve" y="196.59" x="36.60 45.90 55.20" fill="#d4b24a">~|~</text>
<text xml:space="preserve" y="196.59" x="111.00" fill="#d4b24a">┊</text>
<text xml:space="preserve" y="196.59" x="157.50 166.80" fill="#f4cb4b" font-weight="bold">dx</text>
<text xml:space="preserve" y="196.59" x="185.40 194.70 204.00 213.30 222.60 231.90" fill="#f4cb4b" font-weight="bold">&#x27;88~x.</text>
<text xml:space="preserve" y="196.59" x="250.50 259.80 269.10 278.40" fill="#f4cb4b" font-weight="bold">!88~</text>
<text xml:space="preserve" y="196.59" x="306.30 315.60 324.90 334.20 343.50" fill="#f4cb4b" font-weight="bold">8888&gt;</text>
<text xml:space="preserve" y="196.59" x="380.70 390.00 399.30 408.60 417.90 427.20" fill="#ddd6c6">slices</text>
<text xml:space="preserve" y="196.59" x="455.10 464.40 473.70 483.00 492.30" fill="#ddd6c6">fried</text>
<text xml:space="preserve" y="196.59" x="520.20 529.50 538.80 548.10" fill="#ddd6c6">with</text>
<text xml:space="preserve" y="196.59" x="585.30 594.60 603.90 613.20 622.50 631.80" fill="#ddd6c6">turned</text>
<text xml:space="preserve" y="196.59" x="659.70 669.00 678.30 687.60" fill="#ddd6c6">from</text>
<text xml:space="preserve" y="196.59" x="715.50 724.80 734.10" fill="#ddd6c6">the</text>
<text xml:space="preserve" y="196.59" x="762.00 771.30 780.60 789.90 799.20" fill="#ddd6c6">tray,</text>
<text xml:space="preserve" y="196.59" x="817.80 827.10 836.40 845.70 855.00 864.30" fill="#ddd6c6">lifted</text>
<text xml:space="preserve" y="196.59" x="882.90 892.20 901.50" fill="#ddd6c6">the</text>
<text xml:space="preserve" y="196.59" x="920.10 929.40 938.70 948.00 957.30 966.60" fill="#ddd6c6">kettle</text>
<text xml:space="preserve" y="196.59" x="985.20 994.50 1003.80" fill="#ddd6c6">off</text>
<text xml:space="preserve" y="196.59" x="1022.40" fill="#d4b24a">│</text>
<text xml:space="preserve" y="215.09" x="18.00" fill="#d4b24a">│</text>
<text xml:space="preserve" y="215.09" x="45.90" fill="#d4b24a">|</text>
<text xml:space="preserve" y="215.09" x="111.00" fill="#d4b24a">┊</text>
<text xml:space="preserve" y="215.09" x="138.90 148.20 157.50 166.80 176.10 185.40 194.70 204.00 213.30 222.60 231.90 241.20 250.50 259.80" fill="#f4cb4b" font-weight="bold">.8888Xf.888x:!</text>
<text xml:space="preserve" y="215.09" x="306.30 315.60 324.90 334.20 343.50 352.80 362.10" fill="#f4cb4b" font-weight="bold">X888X.:</text>
<text xml:space="preserve" y="215.09" x="380.70 390.00 399.30 408.60 417.90 427.20 436.50 445.80 455.10 464.40 473.70 483.00" fill="#ddd6c6">crustcrumbs,</text>
<text xml:space="preserve" y="215.09" x="510.90 520.20 529.50 538.80 548.10" fill="#ddd6c6">fried</text>
<text xml:space="preserve" y="215.09" x="585.30 594.60 603.90" fill="#ddd6c6">the</text>
<text xml:space="preserve" y="215.09" x="631.80 641.10 650.40" fill="#ddd6c6">hob</text>
<text xml:space="preserve" y="215.09" x="678.30 687.60 696.90" fill="#ddd6c6">and</text>
<text xml:space="preserve" y="215.09" x="724.80 734.10 743.40" fill="#ddd6c6">set</text>
<text xml:space="preserve" y="215.09" x="762.00 771.30" fill="#ddd6c6">it</text>
<text xml:space="preserve" y="215.09" x="789.90 799.20 808.50 817.80 827.10 836.40 845.70 855.00" fill="#ddd6c6">sideways</text>
<text xml:space="preserve" y="215.09" x="873.60 882.90" fill="#ddd6c6">on</text>
<text xml:space="preserve" y="215.09" x="901.50 910.80 920.10" fill="#ddd6c6">the</text>
<text xml:space="preserve" y="215.09" x="938.70 948.00 957.30 966.60 975.90" fill="#ddd6c6">fire.</text>
<text xml:space="preserve" y="215.09" x="994.50 1003.80" fill="#ddd6c6">It</text>
<text xml:space="preserve" y="215.09" x="1022.40" fill="#d4b24a">│</text>
<text xml:space="preserve" y="233.59" x="18.00" fill="#d4b24a">│</text>
<text xml:space="preserve" y="233.59" x="111.00" fill="#d4b24a">┊</text>
<text xml:space="preserve" y="233.59" x="129.60 138.90 148.20 157.50 166.80 176.10 185.40 194.70 204.00 213.30 222.60 231.90 241.20 250.50" fill="#f4cb4b" font-weight="bold">:&quot;&quot;888&quot;:~&quot;888&quot;</text>
<text xml:space="preserve" y="233.59" x="306.30 315.60 324.90 334.20 343.50 352.80" fill="#f4cb4b" font-weight="bold">`888*&quot;</text>
<text xml:space="preserve" y="233.59" x="380.70 390.00 399.30 408.60 417.90 427.20 436.50 445.80" fill="#ddd6c6">hencod&#x27;s</text>
<text xml:space="preserve" y="233.59" x="464.40 473.70 483.00 492.30 501.60" fill="#ddd6c6">roes.</text>
<text xml:space="preserve" y="233.59" x="520.20 529.50 538.80 548.10" fill="#ddd6c6">Most</text>
<text xml:space="preserve" y="233.59" x="585.30 594.60 603.90" fill="#ddd6c6">sat</text>
<text xml:space="preserve" y="233.59" x="631.80 641.10 650.40 659.70 669.00 678.30" fill="#ddd6c6">there,</text>
<text xml:space="preserve" y="233.59" x="706.20 715.50 724.80 734.10" fill="#ddd6c6">dull</text>
<text xml:space="preserve" y="233.59" x="762.00 771.30 780.60" fill="#ddd6c6">and</text>
<text xml:space="preserve" y="233.59" x="808.50 817.80 827.10 836.40 845.70 855.00" fill="#ddd6c6">squat,</text>
<text xml:space="preserve" y="233.59" x="873.60 882.90 892.20" fill="#ddd6c6">its</text>
<text xml:space="preserve" y="233.59" x="910.80 920.10 929.40 938.70 948.00" fill="#ddd6c6">spout</text>
<text xml:space="preserve" y="233.59" x="966.60 975.90 985.20 994.50 1003.80" fill="#ddd6c6">stuck</text>
<text xml:space="preserve" y="233.59" x="1022.40" fill="#d4b24a">│</text>
<text xml:space="preserve" y="252.09" x="18.00" fill="#d4b24a">│</text>
<text xml:space="preserve" y="252.09" x="111.00" fill="#d4b24a">┊</text>
<text xml:space="preserve" y="252.09" x="166.80 176.10 185.40" fill="#f4cb4b" font-weight="bold">&quot;~&#x27;</text>
<text xml:space="preserve" y="252.09" x="231.90 241.20" fill="#f4cb4b" font-weight="bold">&quot;~</text>
<text xml:space="preserve" y="252.09" x="324.90 334.20" fill="#f4cb4b" font-weight="bold">&quot;&quot;</text>
<text xml:space="preserve" y="252.09" x="380.70 390.00" fill="#ddd6c6">of</text>
<text xml:space="preserve" y="252.09" x="427.20 436.50 445.80" fill="#ddd6c6">all</text>
<text xml:space="preserve" y="252.09" x="473.70 483.00" fill="#ddd6c6">he</text>
<text xml:space="preserve" y="252.09" x="510.90 520.20 529.50 538.80 548.10" fill="#ddd6c6">liked</text>
<text xml:space="preserve" y="252.09" x="585.30 594.60 603.90 613.20" fill="#ddd6c6">out.</text>
<text xml:space="preserve" y="252.09" x="631.80 641.10 650.40" fill="#ddd6c6">Cup</text>
<text xml:space="preserve" y="252.09" x="669.00 678.30" fill="#ddd6c6">of</text>
<text xml:space="preserve" y="252.09" x="696.90 706.20 715.50" fill="#e5675a" font-weight="bold">tea</text>
<text xml:space="preserve" y="252.09" x="734.10 743.40 752.70 762.00 771.30" fill="#ddd6c6">soon.</text>
<text xml:space="preserve" y="252.09" x="789.90 799.20 808.50 817.80 827.10" fill="#ddd6c6">Good.</text>
<text xml:space="preserve" y="252.09" x="845.70 855.00 864.30 873.60 882.90" fill="#ddd6c6">Mouth</text>
<text xml:space="preserve" y="252.09" x="901.50 910.80 920.10 929.40" fill="#ddd6c6">dry.</text>
<text xml:space="preserve" y="252.09" x="948.00 957.30 966.60" fill="#ddd6c6">The</text>
<text xml:space="preserve" y="252.09" x="985.20 994.50 1003.80" fill="#e5675a" font-weight="bold">cat</text>
<text xml:space="preserve" y="252.09" x="1022.40" fill="#d4b24a">│</text>
<text xml:space="preserve" y="270.59" x="18.00" fill="#d4b24a">│</text>
<text xml:space="preserve" y="270.59" x="111.00" fill="#d4b24a">┊</text>
<text xml:space="preserve" y="270.59" x="129.60 138.90 148.20 157.50 166.80 176.10 185.40" fill="#ddd6c6">grilled</text>
<text xml:space="preserve" y="270.59" x="213.30 222.60 231.90 241.20 250.50 259.80" fill="#ddd6c6">mutton</text>
<text xml:space="preserve" y="270.59" x="287.70 297.00 306.30 315.60 324.90 334.20 343.50" fill="#e5675a" font-weight="bold">kidneys</text>
<text xml:space="preserve" y="270.59" x="371.40 380.70 390.00 399.30 408.60" fill="#ddd6c6">which</text>
<text xml:space="preserve" y="270.59" x="436.50 445.80 455.10 464.40" fill="#ddd6c6">gave</text>
<text xml:space="preserve" y="270.59" x="492.30 501.60" fill="#ddd6c6">to</text>
<text xml:space="preserve" y="270.59" x="529.50 538.80 548.10" fill="#ddd6c6">his</text>
<text xml:space="preserve" y="270.59" x="585.30 594.60 603.90 613.20 622.50 631.80" fill="#ddd6c6">walked</text>
<text xml:space="preserve" y="270.59" x="659.70 669.00 678.30 687.60 696.90 706.20 715.50" fill="#ddd6c6">stiffly</text>
<text xml:space="preserve" y="270.59" x="743.40 752.70 762.00 771.30 780.60" fill="#ddd6c6">round</text>
<text xml:space="preserve" y="270.59" x="799.20" fill="#ddd6c6">a</text>
<text xml:space="preserve" y="270.59" x="817.80 827.10 836.40" fill="#ddd6c6">leg</text>
<text xml:space="preserve" y="270.59" x="855.00 864.30" fill="#ddd6c6">of</text>
<text xml:space="preserve" y="270.59" x="882.90 892.20 901.50" fill="#ddd6c6">the</text>
<text xml:space="preserve" y="270.59" x="920.10 929.40 938.70 948.00 957.30" fill="#ddd6c6">table</text>
<text xml:space="preserve" y="270.59" x="975.90 985.20 994.50 1003.80" fill="#ddd6c6">with</text>
<text xml:space="preserve" y="270.59" x="1022.40" fill="#d4b24a">│</text>
<text xml:space="preserve" y="289.09" x="18.00" fill="#d4b24a">│</text>
<text xml:space="preserve" y="289.09" x="36.60 45.90 55.20" fill="#d4b24a">&lt;:3</text>
<text xml:space="preserve" y="289.09" x="73.80 83.10 92.40" fill="#d4b24a">)~~</text>
<text xml:space="preserve" y="289.09" x="111.00" fill="#d4b24a">┊</text>
<text xml:space="preserve" y="289.09" x="129.60 138.90 148.20 157.50 166.80 176.10" fill="#ddd6c6">palate</text>
<text xml:space="preserve" y="289.09" x="194.70" fill="#ddd6c6">a</text>
<text xml:space="preserve" y="289.09" x="213.30 222.60 231.90 241.20" fill="#ddd6c6">fine</text>
<text xml:space="preserve" y="289.09" x="259.80 269.10 278.40 287.70" fill="#ddd6c6">tang</text>
<text xml:space="preserve" y="289.09" x="306.30 315.60" fill="#ddd6c6">of</text>
<text xml:space="preserve" y="289.09" x="334.20 343.50 352.80 362.10 371.40 380.70 390.00" fill="#ddd6c6">faintly</text>
<text xml:space="preserve" y="289.09" x="408.60 417.90 427.20 436.50 445.80 455.10 464.40" fill="#ddd6c6">scented</text>
<text xml:space="preserve" y="289.09" x="483.00 492.30 501.60 510.90 520.20 529.50" fill="#ddd6c6">urine.</text>
<text xml:space="preserve" y="289.09" x="548.10" fill="#e5675a" font-weight="bold">¶</text>
<text xml:space="preserve" y="289.09" x="585.30 594.60 603.90 613.20" fill="#ddd6c6">tail</text>
<text xml:space="preserve" y="289.09" x="631.80 641.10" fill="#ddd6c6">on</text>
<text xml:space="preserve" y="289.09" x="659.70 669.00 678.30 687.60 696.90" fill="#ddd6c6">high.</text>
<text xml:space="preserve" y="289.09" x="715.50" fill="#d4b24a">❧</text>
<text xml:space="preserve" y="289.09" x="734.10" fill="#d4b24a">❧</text>
<text xml:space="preserve" y="289.09" x="752.70" fill="#d4b24a">❧</text>
<text xml:space="preserve" y="289.09" x="771.30" fill="#d4b24a">❧</text>
<text xml:space="preserve" y="289.09" x="789.90" fill="#d4b24a">❧</text>
<text xml:space="preserve" y="289.09" x="808.50" fill="#d4b24a">❧</text>
<text xml:space="preserve" y="289.09" x="827.10" fill="#d4b24a">❧</text>
<text xml:space="preserve" y="289.09" x="845.70" fill="#d4b24a">❧</text>
<text xml:space="preserve" y="289.09" x="864.30" fill="#d4b24a">❧</text>
<text xml:space="preserve" y="289.09" x="882.90" fill="#d4b24a">❧</text>
<text xml:space="preserve" y="289.09" x="901.50" fill="#d4b24a">❧</text>
<text xml:space="preserve" y="289.09" x="920.10" fill="#d4b24a">❧</text>
<text xml:space="preserve" y="289.09" x="938.70" fill="#d4b24a">❧</text>
<text xml:space="preserve" y="289.09" x="957.30" fill="#d4b24a">❧</text>
<text xml:space="preserve" y="289.09" x="975.90" fill="#d4b24a">❧</text>
<text xml:space="preserve" y="289.09" x="994.50" fill="#d4b24a">❧</text>
<text xml:space="preserve" y="289.09" x="1022.40" fill="#d4b24a">│</text>
<text xml:space="preserve" y="307.59" x="18.00 27.30 36.60 45.90 55.20 64.50 73.80 83.10 92.40 101.70 111.00 120.30 129.60 138.90 148.20 157.50 166.80 176.10 185.40 194.70 204.00 213.30 222.60 231.90 241.20 250.50 259.80 269.10 278.40 287.70 297.00 306.30 315.60 324.90 334.20 343.50 352.80 362.10 371.40 380.70 390.00 399.30 408.60 417.90 427.20 436.50 445.80 455.10 464.40 473.70 483.00 492.30 501.60 510.90 520.20 529.50 538.80 548.10 557.40 566.70 576.00 585.30 594.60 603.90 613.20 622.50 631.80 641.10 650.40 659.70 669.00 678.30 687.60 696.90 706.20 715.50 724.80 734.10 743.40 752.70 762.00 771.30 780.60 789.90 799.20 808.50 817.80 827.10 836.40 845.70 855.00 864.30 873.60 882.90 892.20 901.50 910.80 920.10 929.40 938.70 948.00 957.30 966.60 975.90 985.20 994.50 1003.80 1013.10 1022.40" fill="#d4b24a">╰─────────────────────────────────────────────────────❦─────────────────────────────────────────────────────╯</text>
</svg>
